<svg width="159" height="37" viewBox="0 0 159 37" fill="none" xmlns="http://www.w3.org/2000/svg">
<path fill-rule="evenodd" clip-rule="evenodd" d="M6.88084 34.9057H29.1692C32.9415 34.9057 36 31.9063 36 28.2069V8.98085C36 5.2815 32.9415 2.28223 29.1692 2.28223H6.88084C3.10853 2.28223 0.0493164 5.2815 0.0493164 8.98085V28.2069C0.0493164 31.9063 3.10853 34.9057 6.88084 34.9057ZM4.52515 8.95883C4.52515 7.62159 5.6244 6.53764 6.97958 6.53764H29.2142C30.5694 6.53764 31.6672 7.62159 31.6672 8.95883L31.6686 11.0765H30.1663C29.917 9.99851 28.9409 9.19438 27.7741 9.19438C26.6058 9.19438 25.6285 9.99851 25.3818 11.0765H24.4403C24.1938 9.99851 23.2153 9.19438 22.0483 9.19438C20.8816 9.19438 19.9049 9.99851 19.657 11.0765H18.7175C18.468 9.99851 17.4921 9.19438 16.3259 9.19438C15.157 9.19438 14.1804 9.99851 13.9326 11.0765H4.52515V8.95883ZM4.52515 12.2112H13.9326C14.1804 13.2711 15.157 14.0614 16.3259 14.0614C17.4921 14.0614 18.468 13.2711 18.7175 12.2112H19.657C19.9055 13.2711 20.8816 14.0614 22.0483 14.0614C23.2153 14.0614 24.1938 13.2711 24.4403 12.2112H25.3818C25.6285 13.2711 26.6058 14.0614 27.7741 14.0614C28.9409 14.0614 29.917 13.2711 30.1663 12.2112H31.6686V18.0267H30.1663C29.917 16.9675 28.9409 16.1766 27.7741 16.1766C26.6058 16.1766 25.6285 16.9675 25.3818 18.0267H24.4403C24.1938 16.9675 23.2153 16.1766 22.0483 16.1766C20.8816 16.1766 19.9055 16.9675 19.657 18.0267H11.356C11.1095 16.9675 10.1322 16.1766 8.96395 16.1766C7.79772 16.1766 6.82105 16.9675 6.57312 18.0267H4.52515V12.2112ZM4.52515 19.1612H6.57312C6.82105 20.2467 7.79772 21.0576 8.96395 21.0576C10.1322 21.0576 11.1095 20.2467 11.356 19.1612H19.657C19.9055 20.2467 20.8816 21.0576 22.0483 21.0576C23.2153 21.0576 24.1938 20.2467 24.4403 19.1612H25.3818C25.6285 20.2467 26.6058 21.0576 27.7741 21.0576C28.9409 21.0576 29.917 20.2467 30.1663 19.1612H31.6686V25.1185H30.1663C29.917 24.0336 28.9409 23.2233 27.7741 23.2233C26.6058 23.2233 25.6285 24.0336 25.3818 25.1185H17.0818C16.8339 24.0336 15.8564 23.2233 14.6897 23.2233C13.5227 23.2233 12.5442 24.0336 12.2975 25.1185H11.356C11.1095 24.0336 10.1322 23.2233 8.96395 23.2233C7.79772 23.2233 6.82105 24.0336 6.57312 25.1185H4.52515V19.1612ZM4.52515 26.1116H6.57312C6.82105 27.1905 7.79772 27.994 8.96395 27.994C10.1322 27.994 11.1095 27.1905 11.356 26.1116H12.2975C12.5442 27.1905 13.5227 27.994 14.6897 27.994C15.8564 27.994 16.8339 27.1905 17.0818 26.1116H25.3818C25.6285 27.1905 26.6058 27.994 27.7741 27.994C28.9409 27.994 29.917 27.1905 30.1663 26.1116H31.6686L31.6672 28.2296C31.6672 29.567 30.5694 30.6505 29.2142 30.6505H6.97958C5.6244 30.6505 4.52515 29.567 4.52515 28.2296V26.1116Z" fill="#13A0D5"/>
<path fill-rule="evenodd" clip-rule="evenodd" d="M155.97 6.43945C154.503 6.43945 153.313 7.6365 153.313 9.11314C153.313 10.5922 154.503 11.7892 155.97 11.7892C157.438 11.7892 158.627 10.5922 158.627 9.11314C158.627 7.6365 157.438 6.43945 155.97 6.43945ZM155.97 11.3969C154.715 11.3969 153.7 10.3765 153.7 9.11297C153.7 7.8543 154.715 6.83141 155.97 6.83141C157.224 6.83141 158.24 7.8543 158.24 9.11297C158.24 10.3765 157.224 11.3969 155.97 11.3969Z" fill="#13A0D5"/>
<path fill-rule="evenodd" clip-rule="evenodd" d="M152.32 12.224H147.288L141.37 18.8709V6H137.353V15.7256C136.624 14.5694 135.647 13.6466 134.423 12.947C133.098 12.1881 131.68 11.8062 130.171 11.8062C128.081 11.8062 126.23 12.5394 124.622 13.9979C123.815 14.7362 123.184 15.5565 122.732 16.4562C122.663 16.3179 122.588 16.1794 122.51 16.0409C121.764 14.7388 120.724 13.7057 119.389 12.947C118.065 12.1881 116.646 11.8062 115.136 11.8062C113.046 11.8062 111.197 12.5394 109.587 13.9979C108.818 14.7002 108.213 15.4771 107.764 16.3253C107.415 15.5411 106.944 14.831 106.358 14.1902C104.896 12.6009 103.12 11.8062 101.029 11.8062C100.067 11.8062 99.165 11.9907 98.321 12.3547C97.4777 12.7213 96.6931 13.2674 95.967 13.9979V6H91.978V12.224H90.5609L85.9681 22.3367L81.804 12.224H75.3108V13.9979C74.5936 13.2674 73.814 12.7213 72.9695 12.3547C72.1261 11.9907 71.223 11.8062 70.2619 11.8062C68.1722 11.8062 66.3952 12.6009 64.9336 14.1902C64.4158 14.7541 63.9903 15.372 63.6565 16.0462C63.3229 15.372 62.8973 14.7541 62.3802 14.1902C60.9173 12.6009 59.1416 11.8062 57.0512 11.8062C56.0887 11.8062 55.1869 11.9907 54.3436 12.3547C53.4998 12.7213 52.7145 13.2674 51.9884 13.9979V12.224H48V34.2284H51.9884V26.6304C52.7725 27.3814 53.5622 27.925 54.3584 28.2607C55.1533 28.5863 56.0111 28.7478 56.9334 28.7478C59.0027 28.7478 60.7943 27.9454 62.3063 26.3356C62.856 25.7435 63.3064 25.1052 63.6565 24.4106C64.0069 25.1052 64.4571 25.7435 65.0068 26.3356C66.5189 27.9454 68.3086 28.7478 70.3791 28.7478C71.3014 28.7478 72.1555 28.5863 72.9415 28.2607C73.7357 27.925 74.5248 27.3814 75.3108 26.6304V28.3351H79.3131V16.1769L83.7906 27.1353L80.4939 34.2284H84.6434L91.978 18.1506V28.3351H95.967V26.6304C96.7509 27.3814 97.5408 27.925 98.3362 28.2607C99.1318 28.5863 99.9896 28.7478 100.912 28.7478C102.983 28.7478 104.771 27.9454 106.283 26.3356C106.889 25.6845 107.375 24.9743 107.736 24.2003C108.124 24.9488 108.631 25.6486 109.265 26.2921C110.893 27.9302 112.855 28.7478 115.15 28.7478C116.711 28.7478 118.138 28.3786 119.434 27.6378C120.728 26.8893 121.748 25.8511 122.495 24.5285C122.575 24.3874 122.652 24.2465 122.723 24.1029C123.114 24.8899 123.639 25.6204 124.296 26.2921C125.927 27.9302 127.888 28.7478 130.185 28.7478C131.745 28.7478 133.175 28.3786 134.468 27.6378C135.664 26.9457 136.625 26.01 137.353 24.8282V28.3351H141.37V20.914L148.171 28.3351H153.161L145.432 19.9502L152.32 12.224ZM59.3033 23.6976C58.4689 24.5973 57.4383 25.046 56.2116 25.046C54.9461 25.046 53.8972 24.6077 53.0628 23.7284C52.2291 22.839 51.8119 21.6802 51.8119 20.2474C51.8119 18.845 52.2291 17.7119 53.0628 16.8432C53.8972 15.974 54.9461 15.5383 56.2116 15.5383C57.4677 15.5383 58.5083 15.9818 59.3332 16.8712C60.1566 17.7505 60.5675 18.8809 60.5675 20.2627C60.5675 21.6545 60.1465 22.8005 59.3033 23.6976ZM74.2509 23.7284C73.4159 24.6077 72.367 25.046 71.1001 25.046C69.8735 25.046 68.8391 24.5973 67.9946 23.6976C67.1615 22.8005 66.7438 21.6545 66.7438 20.2627C66.7438 18.8809 67.1564 17.7505 67.9805 16.8712C68.8053 15.9818 69.8397 15.5383 71.0861 15.5383C72.3612 15.5408 73.4159 15.974 74.2509 16.8432C75.0847 17.7119 75.5017 18.845 75.5017 20.2474C75.5017 21.6802 75.0847 22.839 74.2509 23.7284ZM103.281 23.6976C102.446 24.5973 101.417 25.046 100.192 25.046C98.9242 25.046 97.8752 24.6077 97.0416 23.7284C96.2065 22.839 95.79 21.6802 95.79 20.2474C95.79 18.845 96.2065 17.7119 97.0416 16.8432C97.8752 15.974 98.9242 15.5383 100.192 15.5383C101.446 15.5383 102.486 15.9818 103.311 16.8712C104.134 17.7505 104.547 18.8809 104.547 20.2627C104.547 21.6546 104.124 22.8005 103.281 23.6976ZM118.316 23.6698C117.481 24.5491 116.437 24.9873 115.181 24.9873C113.925 24.9873 112.884 24.5541 112.06 23.6852C111.245 22.8162 110.839 21.6806 110.839 20.2785C110.839 18.9174 111.251 17.7996 112.075 16.9306C112.908 16.0514 113.948 15.6131 115.196 15.6131C116.471 15.6131 117.514 16.0463 118.33 16.9151C119.155 17.7764 119.566 18.8967 119.566 20.2785C119.566 21.6601 119.149 22.7905 118.316 23.6698ZM133.349 23.6698C132.515 24.5491 131.47 24.9873 130.214 24.9873C128.958 24.9873 127.919 24.5542 127.093 23.6852C126.281 22.8162 125.873 21.6806 125.873 20.2785C125.873 18.9174 126.286 17.7996 127.109 16.9306C127.942 16.0514 128.984 15.6131 130.23 15.6131C131.503 15.6131 132.55 16.0464 133.364 16.9151C134.189 17.7765 134.6 18.8967 134.6 20.2785C134.6 21.6601 134.183 22.7905 133.349 23.6698Z" fill="#13A0D5"/>
<path fill-rule="evenodd" clip-rule="evenodd" d="M156.441 9.15386C156.85 9.04607 157.102 8.79231 157.102 8.37969C157.102 8.07218 156.929 7.75161 156.584 7.63119C156.385 7.55948 156.162 7.55176 155.832 7.55176H154.785V10.7892H155.358V9.3411H155.56C155.975 9.34614 156.199 9.38445 156.284 9.84593L156.362 10.3433C156.413 10.6252 156.463 10.7405 156.492 10.7892H157.144C157.002 10.5022 156.971 10.3227 156.901 9.83049C156.828 9.39217 156.698 9.26908 156.441 9.15386ZM155.84 8.87927H155.367V7.99744H155.733C156.112 7.99744 156.182 7.99744 156.298 8.04866C156.477 8.12825 156.528 8.31014 156.528 8.43308C156.528 8.88684 156.069 8.87927 155.84 8.87927Z" fill="#13A0D5"/>
</svg>
